# xmcd
#
# Track frame offsets: 
#        150
#        17530
#        43135
#        58395
#        73035
#        87215
#        101517
#        114640
#        133572
#        149747
#        164940
#        177665
#
# Disc length: 2510 seconds
#
# Revision: 2
# Processed by: cddbd v1.5.2PL0 Copyright (c) Steve Scherf et al.
# Submitted via: ExactAudioCopyFreeDBPlugin 1.0
#
DISCID=bb09cc0c
DTITLE=Billy Ocean - Light up the World with Sunshine
DYEAR=1900
DGENRE=Blues
TTITLE0=On the run  (Hold on Brother)
TTITLE1=Wild beautiful woman
TTITLE2=Emotions in motion
TTITLE3=Love really hurts without you
TTITLE4=Light up the world with sunshine
TTITLE5=He aint's as black as he's painted
TTITLE6=Whose little girl are you?
TTITLE7=Hungry for love
TTITLE8=Eye of a storm
TTITLE9=Can you feel it?
TTITLE10=What's gonna happen to our love?
TTITLE11=Super woman, super love
EXTD=
EXTT0=
EXTT1=
EXTT2=
EXTT3=
EXTT4=
EXTT5=
EXTT6=
EXTT7=
EXTT8=
EXTT9=
EXTT10=
EXTT11=
PLAYORDER=
